<svg xmlns="http://www.w3.org/2000/svg" viewBox="0 0 64 64"><rect width="64" height="64" rx="14" fill="#171717"/><g fill="#f5f5f5"><rect x="28" y="4" width="8" height="9" rx="1.5" transform="rotate(0 32 32)"/><rect x="28" y="4" width="8" height="9" rx="1.5" transform="rotate(36 32 32)"/><rect x="28" y="4" width="8" height="9" rx="1.5" transform="rotate(72 32 32)"/><rect x="28" y="4" width="8" height="9" rx="1.5" transform="rotate(108 32 32)"/><rect x="28" y="4" width="8" height="9" rx="1.5" transform="rotate(144 32 32)"/><rect x="28" y="4" width="8" height="9" rx="1.5" transform="rotate(180 32 32)"/><rect x="28" y="4" width="8" height="9" rx="1.5" transform="rotate(216 32 32)"/><rect x="28" y="4" width="8" height="9" rx="1.5" transform="rotate(252 32 32)"/><rect x="28" y="4" width="8" height="9" rx="1.5" transform="rotate(288 32 32)"/><rect x="28" y="4" width="8" height="9" rx="1.5" transform="rotate(324 32 32)"/><circle cx="32" cy="32" r="21"/></g><circle cx="32" cy="32" r="15.5" fill="#171717"/><g fill="none" stroke="#f5f5f5" stroke-width="3" stroke-linecap="round"><path d="M22.5 30.8a13.5 13.5 0 0 1 19 0"/><path d="M26.2 34.8a8.2 8.2 0 0 1 11.6 0"/></g><circle cx="32" cy="39.8" r="2.7" fill="#E31937"/></svg>